<svg width="43" height="50" viewBox="0 0 43 50" fill="none" xmlns="http://www.w3.org/2000/svg">
<path d="M21.5 0L0 7.14286V28.5714C0 40.4074 9.62461 50 21.5 50C33.3754 50 43 40.4074 43 28.5714V7.14286L21.5 0ZM38.9688 28.5714C38.9688 38.1864 31.147 45.9821 21.5 45.9821C11.853 45.9821 4.03125 38.1864 4.03125 28.5714V10.1562L21.5 4.01786L38.9688 10.1562V28.5714Z" fill="white"/>
<path d="M14.0206 22.9411C13.8338 22.754 13.6117 22.6056 13.3672 22.5043C13.1227 22.403 12.8605 22.3509 12.5957 22.3509C12.3309 22.3509 12.0687 22.403 11.8241 22.5043C11.5796 22.6056 11.3576 22.754 11.1707 22.9411C10.9831 23.1273 10.8342 23.3486 10.7325 23.5923C10.6309 23.836 10.5786 24.0973 10.5786 24.3613C10.5786 24.6252 10.6309 24.8865 10.7325 25.1302C10.8342 25.374 10.9831 25.5953 11.1707 25.7815L18.4158 33.0024L18.5334 33.1196C18.7101 33.2961 18.92 33.4361 19.151 33.5316C19.3821 33.6271 19.6298 33.6763 19.8799 33.6763C20.1301 33.6763 20.3778 33.6271 20.6088 33.5316C20.8399 33.4361 21.0498 33.2961 21.2265 33.1196L33.7401 20.6475C33.9172 20.4714 34.0576 20.2622 34.1535 20.0319C34.2493 19.8016 34.2986 19.5548 34.2986 19.3055C34.2986 19.0561 34.2493 18.8093 34.1535 18.579C34.0576 18.3487 33.9172 18.1395 33.7401 17.9634L33.5834 17.8071C33.4067 17.6307 33.1968 17.4907 32.9657 17.3952C32.7347 17.2997 32.487 17.2505 32.2368 17.2505C31.9867 17.2505 31.739 17.2997 31.5079 17.3952C31.2769 17.4907 31.067 17.6307 30.8903 17.8071L19.8771 28.7781L14.0206 22.9411Z" fill="white"/>
</svg>
