<svg width="54" height="54" viewBox="0 0 54 54" fill="none" xmlns="http://www.w3.org/2000/svg">
<path d="M21.1944 7.30556L26.75 1.75M15.6389 37.8611L37.8611 15.6389M26.75 51.75L32.3056 46.1944M39.25 46.1944C41.0918 46.1944 42.8581 45.4628 44.1605 44.1605C45.4628 42.8581 46.1944 41.0918 46.1944 39.25C46.1944 37.4082 45.4628 35.6419 44.1605 34.3395C42.8581 33.0372 41.0918 32.3056 39.25 32.3056C37.4082 32.3056 35.6419 33.0372 34.3395 34.3395C33.0372 35.6419 32.3056 37.4082 32.3056 39.25C32.3056 41.0918 33.0372 42.8581 34.3395 44.1605C35.6419 45.4628 37.4082 46.1944 39.25 46.1944ZM14.25 21.1944C16.0918 21.1944 17.8581 20.4628 19.1605 19.1605C20.4628 17.8581 21.1944 16.0918 21.1944 14.25C21.1944 12.4082 20.4628 10.6419 19.1605 9.33954C17.8581 8.0372 16.0918 7.30556 14.25 7.30556C12.4082 7.30556 10.6419 8.0372 9.33954 9.33954C8.0372 10.6419 7.30556 12.4082 7.30556 14.25C7.30556 16.0918 8.0372 17.8581 9.33954 19.1605C10.6419 20.4628 12.4082 21.1944 14.25 21.1944ZM8.69444 51.75C10.5362 51.75 12.3026 51.0184 13.6049 49.716C14.9072 48.4137 15.6389 46.6473 15.6389 44.8056C15.6389 42.9638 14.9072 41.1974 13.6049 39.8951C12.3026 38.5928 10.5362 37.8611 8.69444 37.8611C6.85266 37.8611 5.08632 38.5928 3.78398 39.8951C2.48164 41.1974 1.75 42.9638 1.75 44.8056C1.75 46.6473 2.48164 48.4137 3.78398 49.716C5.08632 51.0184 6.85266 51.75 8.69444 51.75ZM44.8056 15.6389C46.6473 15.6389 48.4137 14.9072 49.716 13.6049C51.0184 12.3026 51.75 10.5362 51.75 8.69444C51.75 6.85266 51.0184 5.08632 49.716 3.78398C48.4137 2.48164 46.6473 1.75 44.8056 1.75C42.9638 1.75 41.1974 2.48164 39.8951 3.78398C38.5928 5.08632 37.8611 6.85266 37.8611 8.69444C37.8611 10.5362 38.5928 12.3026 39.8951 13.6049C41.1974 14.9072 42.9638 15.6389 44.8056 15.6389Z" stroke="white" stroke-width="3.5" stroke-linecap="round" stroke-linejoin="round"/>
</svg>
