<svg width="54" height="54" viewBox="0 0 54 54" fill="none" xmlns="http://www.w3.org/2000/svg">
<path d="M9.25 36.75L21.75 29.25M31.75 24.25L44.25 16.75M26.75 9.25V21.75M26.75 31.75V44.25M9.25 16.75L21.75 24.25M31.75 29.25L44.25 36.75M48 19.25V33M30.5 48L44.25 40.5M8 40.5L23 48M5.5 34.25V19.25M8 13L23 5.5M45.5 13L30.5 5.5" stroke="white" stroke-width="3.5" stroke-linejoin="round"/>
<path d="M26.75 9.25C28.8211 9.25 30.5 7.57107 30.5 5.5C30.5 3.42893 28.8211 1.75 26.75 1.75C24.6789 1.75 23 3.42893 23 5.5C23 7.57107 24.6789 9.25 26.75 9.25Z" stroke="white" stroke-width="3.5" stroke-linejoin="round"/>
<path d="M26.75 51.75C28.8211 51.75 30.5 50.0711 30.5 48C30.5 45.9289 28.8211 44.25 26.75 44.25C24.6789 44.25 23 45.9289 23 48C23 50.0711 24.6789 51.75 26.75 51.75Z" stroke="white" stroke-width="3.5" stroke-linejoin="round"/>
<path d="M5.5 19.25C7.57107 19.25 9.25 17.5711 9.25 15.5C9.25 13.4289 7.57107 11.75 5.5 11.75C3.42893 11.75 1.75 13.4289 1.75 15.5C1.75 17.5711 3.42893 19.25 5.5 19.25Z" stroke="white" stroke-width="3.5" stroke-linejoin="round"/>
<path d="M48 19.25C50.0711 19.25 51.75 17.5711 51.75 15.5C51.75 13.4289 50.0711 11.75 48 11.75C45.9289 11.75 44.25 13.4289 44.25 15.5C44.25 17.5711 45.9289 19.25 48 19.25Z" stroke="white" stroke-width="3.5" stroke-linejoin="round"/>
<path d="M48 41.75C50.0711 41.75 51.75 40.0711 51.75 38C51.75 35.9289 50.0711 34.25 48 34.25C45.9289 34.25 44.25 35.9289 44.25 38C44.25 40.0711 45.9289 41.75 48 41.75Z" stroke="white" stroke-width="3.5" stroke-linejoin="round"/>
<path d="M5.5 41.75C7.57107 41.75 9.25 40.0711 9.25 38C9.25 35.9289 7.57107 34.25 5.5 34.25C3.42893 34.25 1.75 35.9289 1.75 38C1.75 40.0711 3.42893 41.75 5.5 41.75Z" stroke="white" stroke-width="3.5" stroke-linejoin="round"/>
<path d="M26.75 21.125L31.75 23.9375V29.5625L26.75 32.375L21.75 29.5625V23.9375L26.75 21.125Z" stroke="white" stroke-width="3.5" stroke-linejoin="round"/>
</svg>
